<svg id="visual" viewBox="0 0 1000 200" width="1000" height="200" xmlns="http://www.w3.org/2000/svg" xmlns:xlink="http://www.w3.org/1999/xlink" version="1.1"><rect x="0" y="0" width="1000" height="200" fill="#7b3def"></rect><path d="M0 106L9.8 103C19.7 100 39.3 94 59 88C78.7 82 98.3 76 117.8 78.5C137.3 81 156.7 92 176.2 88.7C195.7 85.3 215.3 67.7 235 62.7C254.7 57.7 274.3 65.3 294 65.2C313.7 65 333.3 57 353 55C372.7 53 392.3 57 412 60.3C431.7 63.7 451.3 66.3 470.8 73.2C490.3 80 509.7 91 529.2 88.3C548.7 85.7 568.3 69.3 588 62.2C607.7 55 627.3 57 647 64.7C666.7 72.3 686.3 85.7 706 84.2C725.7 82.7 745.3 66.3 765 58.8C784.7 51.3 804.3 52.7 823.8 54.7C843.3 56.7 862.7 59.3 882.2 62.2C901.7 65 921.3 68 941 66.3C960.7 64.7 980.3 58.3 990.2 55.2L1000 52L1000 201L990.2 201C980.3 201 960.7 201 941 201C921.3 201 901.7 201 882.2 201C862.7 201 843.3 201 823.8 201C804.3 201 784.7 201 765 201C745.3 201 725.7 201 706 201C686.3 201 666.7 201 647 201C627.3 201 607.7 201 588 201C568.3 201 548.7 201 529.2 201C509.7 201 490.3 201 470.8 201C451.3 201 431.7 201 412 201C392.3 201 372.7 201 353 201C333.3 201 313.7 201 294 201C274.3 201 254.7 201 235 201C215.3 201 195.7 201 176.2 201C156.7 201 137.3 201 117.8 201C98.3 201 78.7 201 59 201C39.3 201 19.7 201 9.8 201L0 201Z" fill="#7b3def"></path><path d="M0 76L9.8 78C19.7 80 39.3 84 59 85.8C78.7 87.7 98.3 87.3 117.8 89.5C137.3 91.7 156.7 96.3 176.2 102.8C195.7 109.3 215.3 117.7 235 119.7C254.7 121.7 274.3 117.3 294 113.7C313.7 110 333.3 107 353 102.5C372.7 98 392.3 92 412 89.2C431.7 86.3 451.3 86.7 470.8 92.2C490.3 97.7 509.7 108.3 529.2 111.2C548.7 114 568.3 109 588 109.2C607.7 109.3 627.3 114.7 647 112.7C666.7 110.7 686.3 101.3 706 97.7C725.7 94 745.3 96 765 94.2C784.7 92.3 804.3 86.7 823.8 88.5C843.3 90.3 862.7 99.7 882.2 99.5C901.7 99.3 921.3 89.7 941 87.8C960.7 86 980.3 92 990.2 95L1000 98L1000 201L990.2 201C980.3 201 960.7 201 941 201C921.3 201 901.7 201 882.2 201C862.7 201 843.3 201 823.8 201C804.3 201 784.7 201 765 201C745.3 201 725.7 201 706 201C686.3 201 666.7 201 647 201C627.3 201 607.7 201 588 201C568.3 201 548.7 201 529.2 201C509.7 201 490.3 201 470.8 201C451.3 201 431.7 201 412 201C392.3 201 372.7 201 353 201C333.3 201 313.7 201 294 201C274.3 201 254.7 201 235 201C215.3 201 195.7 201 176.2 201C156.7 201 137.3 201 117.8 201C98.3 201 78.7 201 59 201C39.3 201 19.7 201 9.8 201L0 201Z" fill="#953eed"></path><path d="M0 140L9.8 137.5C19.7 135 39.3 130 59 130.3C78.7 130.7 98.3 136.3 117.8 138.3C137.3 140.3 156.7 138.7 176.2 136.3C195.7 134 215.3 131 235 127C254.7 123 274.3 118 294 120.3C313.7 122.7 333.3 132.3 353 132C372.7 131.7 392.3 121.3 412 117.2C431.7 113 451.3 115 470.8 117.2C490.3 119.3 509.7 121.7 529.2 119.5C548.7 117.3 568.3 110.7 588 109C607.7 107.3 627.3 110.7 647 117.5C666.7 124.3 686.3 134.7 706 140C725.7 145.3 745.3 145.7 765 142C784.7 138.3 804.3 130.7 823.8 129.7C843.3 128.7 862.7 134.3 882.2 136C901.7 137.7 921.3 135.3 941 135.3C960.7 135.3 980.3 137.7 990.2 138.8L1000 140L1000 201L990.2 201C980.3 201 960.7 201 941 201C921.3 201 901.7 201 882.2 201C862.7 201 843.3 201 823.8 201C804.3 201 784.7 201 765 201C745.3 201 725.7 201 706 201C686.3 201 666.7 201 647 201C627.3 201 607.7 201 588 201C568.3 201 548.7 201 529.2 201C509.7 201 490.3 201 470.8 201C451.3 201 431.7 201 412 201C392.3 201 372.7 201 353 201C333.3 201 313.7 201 294 201C274.3 201 254.7 201 235 201C215.3 201 195.7 201 176.2 201C156.7 201 137.3 201 117.8 201C98.3 201 78.7 201 59 201C39.3 201 19.7 201 9.8 201L0 201Z" fill="#ac3feb"></path><path d="M0 134L9.8 135.2C19.7 136.3 39.3 138.7 59 141.8C78.7 145 98.3 149 117.8 147.3C137.3 145.7 156.7 138.3 176.2 136C195.7 133.7 215.3 136.3 235 136.8C254.7 137.3 274.3 135.7 294 137.7C313.7 139.7 333.3 145.3 353 144.3C372.7 143.3 392.3 135.7 412 132.8C431.7 130 451.3 132 470.8 136C490.3 140 509.7 146 529.2 149.5C548.7 153 568.3 154 588 150.3C607.7 146.7 627.3 138.3 647 137C666.7 135.7 686.3 141.3 706 145.8C725.7 150.3 745.3 153.7 765 155.5C784.7 157.3 804.3 157.7 823.8 153.3C843.3 149 862.7 140 882.2 140.3C901.7 140.7 921.3 150.3 941 150.8C960.7 151.3 980.3 142.7 990.2 138.3L1000 134L1000 201L990.2 201C980.3 201 960.7 201 941 201C921.3 201 901.7 201 882.2 201C862.7 201 843.3 201 823.8 201C804.3 201 784.7 201 765 201C745.3 201 725.7 201 706 201C686.3 201 666.7 201 647 201C627.3 201 607.7 201 588 201C568.3 201 548.7 201 529.2 201C509.7 201 490.3 201 470.8 201C451.3 201 431.7 201 412 201C392.3 201 372.7 201 353 201C333.3 201 313.7 201 294 201C274.3 201 254.7 201 235 201C215.3 201 195.7 201 176.2 201C156.7 201 137.3 201 117.8 201C98.3 201 78.7 201 59 201C39.3 201 19.7 201 9.8 201L0 201Z" fill="#c041e9"></path><path d="M0 165L9.8 167.7C19.7 170.3 39.3 175.7 59 175.7C78.7 175.7 98.3 170.3 117.8 170.3C137.3 170.3 156.7 175.7 176.2 176.7C195.7 177.7 215.3 174.3 235 170.8C254.7 167.3 274.3 163.7 294 165.2C313.7 166.7 333.3 173.3 353 173.8C372.7 174.3 392.3 168.7 412 166C431.7 163.3 451.3 163.7 470.8 165.7C490.3 167.7 509.7 171.3 529.2 170.5C548.7 169.7 568.3 164.3 588 165.7C607.7 167 627.3 175 647 175.8C666.7 176.7 686.3 170.3 706 170C725.7 169.7 745.3 175.3 765 176.2C784.7 177 804.3 173 823.8 171C843.3 169 862.7 169 882.2 168.2C901.7 167.3 921.3 165.7 941 163.8C960.7 162 980.3 160 990.2 159L1000 158L1000 201L990.2 201C980.3 201 960.7 201 941 201C921.3 201 901.7 201 882.2 201C862.7 201 843.3 201 823.8 201C804.3 201 784.7 201 765 201C745.3 201 725.7 201 706 201C686.3 201 666.7 201 647 201C627.3 201 607.7 201 588 201C568.3 201 548.7 201 529.2 201C509.7 201 490.3 201 470.8 201C451.3 201 431.7 201 412 201C392.3 201 372.7 201 353 201C333.3 201 313.7 201 294 201C274.3 201 254.7 201 235 201C215.3 201 195.7 201 176.2 201C156.7 201 137.3 201 117.8 201C98.3 201 78.7 201 59 201C39.3 201 19.7 201 9.8 201L0 201Z" fill="#d245e6"></path></svg>