<svg id="visual" viewBox="0 0 1000 200" width="1000" height="200" xmlns="http://www.w3.org/2000/svg" xmlns:xlink="http://www.w3.org/1999/xlink" version="1.1"><rect x="0" y="0" width="1000" height="200" fill="#fff"></rect><path d="M0 42L9.3 43.7C18.7 45.3 37.3 48.7 55.8 49C74.3 49.3 92.7 46.7 111.2 53.7C129.7 60.7 148.3 77.3 166.8 84C185.3 90.7 203.7 87.3 222.2 82.3C240.7 77.3 259.3 70.7 277.8 70.5C296.3 70.3 314.7 76.7 333.2 74.2C351.7 71.7 370.3 60.3 388.8 54.5C407.3 48.7 425.7 48.3 444.2 47.3C462.7 46.3 481.3 44.7 500 48.2C518.7 51.7 537.3 60.3 555.8 59.8C574.3 59.3 592.7 49.7 611.2 48C629.7 46.3 648.3 52.7 666.8 60.7C685.3 68.7 703.7 78.3 722.2 82.5C740.7 86.7 759.3 85.3 777.8 84.2C796.3 83 814.7 82 833.2 82C851.7 82 870.3 83 888.8 78.3C907.3 73.7 925.7 63.3 944.2 54.8C962.7 46.3 981.3 39.7 990.7 36.3L1000 33L1000 201L990.7 201C981.3 201 962.7 201 944.2 201C925.7 201 907.3 201 888.8 201C870.3 201 851.7 201 833.2 201C814.7 201 796.3 201 777.8 201C759.3 201 740.7 201 722.2 201C703.7 201 685.3 201 666.8 201C648.3 201 629.7 201 611.2 201C592.7 201 574.3 201 555.8 201C537.3 201 518.7 201 500 201C481.3 201 462.7 201 444.2 201C425.7 201 407.3 201 388.8 201C370.3 201 351.7 201 333.2 201C314.7 201 296.3 201 277.8 201C259.3 201 240.7 201 222.2 201C203.7 201 185.3 201 166.8 201C148.3 201 129.7 201 111.2 201C92.7 201 74.3 201 55.8 201C37.3 201 18.7 201 9.3 201L0 201Z" fill="#e435ee"></path><path d="M0 73L9.3 72.2C18.7 71.3 37.3 69.7 55.8 68.7C74.3 67.7 92.7 67.3 111.2 67.7C129.7 68 148.3 69 166.8 69C185.3 69 203.7 68 222.2 70.2C240.7 72.3 259.3 77.7 277.8 85.8C296.3 94 314.7 105 333.2 103.8C351.7 102.7 370.3 89.3 388.8 83C407.3 76.7 425.7 77.3 444.2 80.8C462.7 84.3 481.3 90.7 500 95C518.7 99.3 537.3 101.7 555.8 104.8C574.3 108 592.7 112 611.2 107.2C629.7 102.3 648.3 88.7 666.8 86.8C685.3 85 703.7 95 722.2 99.2C740.7 103.3 759.3 101.7 777.8 103.7C796.3 105.7 814.7 111.3 833.2 106.2C851.7 101 870.3 85 888.8 84.5C907.3 84 925.7 99 944.2 104.5C962.7 110 981.3 106 990.7 104L1000 102L1000 201L990.7 201C981.3 201 962.7 201 944.2 201C925.7 201 907.3 201 888.8 201C870.3 201 851.7 201 833.2 201C814.7 201 796.3 201 777.8 201C759.3 201 740.7 201 722.2 201C703.7 201 685.3 201 666.8 201C648.3 201 629.7 201 611.2 201C592.7 201 574.3 201 555.8 201C537.3 201 518.7 201 500 201C481.3 201 462.7 201 444.2 201C425.7 201 407.3 201 388.8 201C370.3 201 351.7 201 333.2 201C314.7 201 296.3 201 277.8 201C259.3 201 240.7 201 222.2 201C203.7 201 185.3 201 166.8 201C148.3 201 129.7 201 111.2 201C92.7 201 74.3 201 55.8 201C37.3 201 18.7 201 9.3 201L0 201Z" fill="#c735f0"></path><path d="M0 107L9.3 108.8C18.7 110.7 37.3 114.3 55.8 116.5C74.3 118.7 92.7 119.3 111.2 122.8C129.7 126.3 148.3 132.7 166.8 135.5C185.3 138.3 203.7 137.7 222.2 137.5C240.7 137.3 259.3 137.7 277.8 133.8C296.3 130 314.7 122 333.2 124C351.7 126 370.3 138 388.8 138.8C407.3 139.7 425.7 129.3 444.2 129.2C462.7 129 481.3 139 500 137.2C518.7 135.3 537.3 121.7 555.8 121.5C574.3 121.3 592.7 134.7 611.2 139.7C629.7 144.7 648.3 141.3 666.8 139.8C685.3 138.3 703.7 138.7 722.2 133.3C740.7 128 759.3 117 777.8 118.7C796.3 120.3 814.7 134.7 833.2 137.8C851.7 141 870.3 133 888.8 129.5C907.3 126 925.7 127 944.2 129C962.7 131 981.3 134 990.7 135.5L1000 137L1000 201L990.7 201C981.3 201 962.7 201 944.2 201C925.7 201 907.3 201 888.8 201C870.3 201 851.7 201 833.2 201C814.7 201 796.3 201 777.8 201C759.3 201 740.7 201 722.2 201C703.7 201 685.3 201 666.8 201C648.3 201 629.7 201 611.2 201C592.7 201 574.3 201 555.8 201C537.3 201 518.7 201 500 201C481.3 201 462.7 201 444.2 201C425.7 201 407.3 201 388.8 201C370.3 201 351.7 201 333.2 201C314.7 201 296.3 201 277.8 201C259.3 201 240.7 201 222.2 201C203.7 201 185.3 201 166.8 201C148.3 201 129.7 201 111.2 201C92.7 201 74.3 201 55.8 201C37.3 201 18.7 201 9.3 201L0 201Z" fill="#a636f1"></path><path d="M0 145L9.3 147.3C18.7 149.7 37.3 154.3 55.8 157.8C74.3 161.3 92.7 163.7 111.2 164.2C129.7 164.7 148.3 163.3 166.8 160.7C185.3 158 203.7 154 222.2 156C240.7 158 259.3 166 277.8 169.8C296.3 173.7 314.7 173.3 333.2 172.8C351.7 172.3 370.3 171.7 388.8 172.7C407.3 173.7 425.7 176.3 444.2 176.8C462.7 177.3 481.3 175.7 500 173.3C518.7 171 537.3 168 555.8 167C574.3 166 592.7 167 611.2 165.2C629.7 163.3 648.3 158.7 666.8 154.2C685.3 149.7 703.7 145.3 722.2 143.5C740.7 141.7 759.3 142.3 777.8 148.2C796.3 154 814.7 165 833.2 167.5C851.7 170 870.3 164 888.8 158.7C907.3 153.3 925.7 148.7 944.2 149.5C962.7 150.3 981.3 156.7 990.7 159.8L1000 163L1000 201L990.7 201C981.3 201 962.7 201 944.2 201C925.7 201 907.3 201 888.8 201C870.3 201 851.7 201 833.2 201C814.7 201 796.3 201 777.8 201C759.3 201 740.7 201 722.2 201C703.7 201 685.3 201 666.8 201C648.3 201 629.7 201 611.2 201C592.7 201 574.3 201 555.8 201C537.3 201 518.7 201 500 201C481.3 201 462.7 201 444.2 201C425.7 201 407.3 201 388.8 201C370.3 201 351.7 201 333.2 201C314.7 201 296.3 201 277.8 201C259.3 201 240.7 201 222.2 201C203.7 201 185.3 201 166.8 201C148.3 201 129.7 201 111.2 201C92.7 201 74.3 201 55.8 201C37.3 201 18.7 201 9.3 201L0 201Z" fill="#8138f1"></path></svg>