<svg id="visual" viewBox="0 0 1000 200" width="1000" height="200" xmlns="http://www.w3.org/2000/svg" xmlns:xlink="http://www.w3.org/1999/xlink" version="1.1"><rect x="0" y="0" width="1000" height="200" fill="#d244e8"></rect><path d="M0 61L9.3 62.8C18.7 64.7 37.3 68.3 55.8 71C74.3 73.7 92.7 75.3 111.2 69.7C129.7 64 148.3 51 166.8 45.3C185.3 39.7 203.7 41.3 222.2 43C240.7 44.7 259.3 46.3 277.8 46.5C296.3 46.7 314.7 45.3 333.2 51.8C351.7 58.3 370.3 72.7 388.8 73.2C407.3 73.7 425.7 60.3 444.2 56.8C462.7 53.3 481.3 59.7 500 66.2C518.7 72.7 537.3 79.3 555.8 80.2C574.3 81 592.7 76 611.2 75C629.7 74 648.3 77 666.8 70.5C685.3 64 703.7 48 722.2 47.3C740.7 46.7 759.3 61.3 777.8 66.2C796.3 71 814.7 66 833.2 59.3C851.7 52.7 870.3 44.3 888.8 48.5C907.3 52.7 925.7 69.3 944.2 69.3C962.7 69.3 981.3 52.7 990.7 44.3L1000 36L1000 201L990.7 201C981.3 201 962.7 201 944.2 201C925.7 201 907.3 201 888.8 201C870.3 201 851.7 201 833.2 201C814.7 201 796.3 201 777.8 201C759.3 201 740.7 201 722.2 201C703.7 201 685.3 201 666.8 201C648.3 201 629.7 201 611.2 201C592.7 201 574.3 201 555.8 201C537.3 201 518.7 201 500 201C481.3 201 462.7 201 444.2 201C425.7 201 407.3 201 388.8 201C370.3 201 351.7 201 333.2 201C314.7 201 296.3 201 277.8 201C259.3 201 240.7 201 222.2 201C203.7 201 185.3 201 166.8 201C148.3 201 129.7 201 111.2 201C92.7 201 74.3 201 55.8 201C37.3 201 18.7 201 9.3 201L0 201Z" fill="#d244e8"></path><path d="M0 62L9.3 63.7C18.7 65.3 37.3 68.7 55.8 69.2C74.3 69.7 92.7 67.3 111.2 70.7C129.7 74 148.3 83 166.8 88.5C185.3 94 203.7 96 222.2 95.2C240.7 94.3 259.3 90.7 277.8 92.7C296.3 94.7 314.7 102.3 333.2 98C351.7 93.7 370.3 77.3 388.8 76C407.3 74.7 425.7 88.3 444.2 89.7C462.7 91 481.3 80 500 80.5C518.7 81 537.3 93 555.8 96.8C574.3 100.7 592.7 96.3 611.2 89.2C629.7 82 648.3 72 666.8 74.5C685.3 77 703.7 92 722.2 97.3C740.7 102.7 759.3 98.3 777.8 95.7C796.3 93 814.7 92 833.2 91.7C851.7 91.3 870.3 91.7 888.8 88.7C907.3 85.7 925.7 79.3 944.2 74.7C962.7 70 981.3 67 990.7 65.5L1000 64L1000 201L990.7 201C981.3 201 962.7 201 944.2 201C925.7 201 907.3 201 888.8 201C870.3 201 851.7 201 833.2 201C814.7 201 796.3 201 777.8 201C759.3 201 740.7 201 722.2 201C703.7 201 685.3 201 666.8 201C648.3 201 629.7 201 611.2 201C592.7 201 574.3 201 555.8 201C537.3 201 518.7 201 500 201C481.3 201 462.7 201 444.2 201C425.7 201 407.3 201 388.8 201C370.3 201 351.7 201 333.2 201C314.7 201 296.3 201 277.8 201C259.3 201 240.7 201 222.2 201C203.7 201 185.3 201 166.8 201C148.3 201 129.7 201 111.2 201C92.7 201 74.3 201 55.8 201C37.3 201 18.7 201 9.3 201L0 201Z" fill="#e17bef"></path><path d="M0 92L9.3 93C18.7 94 37.3 96 55.8 99.7C74.3 103.3 92.7 108.7 111.2 107.5C129.7 106.3 148.3 98.7 166.8 100C185.3 101.3 203.7 111.7 222.2 115C240.7 118.3 259.3 114.7 277.8 111C296.3 107.3 314.7 103.7 333.2 103.7C351.7 103.7 370.3 107.3 388.8 111.8C407.3 116.3 425.7 121.7 444.2 123.3C462.7 125 481.3 123 500 122.8C518.7 122.7 537.3 124.3 555.8 121.8C574.3 119.3 592.7 112.7 611.2 110.3C629.7 108 648.3 110 666.8 108.5C685.3 107 703.7 102 722.2 102.2C740.7 102.3 759.3 107.7 777.8 108C796.3 108.3 814.7 103.7 833.2 100.3C851.7 97 870.3 95 888.8 99C907.3 103 925.7 113 944.2 112.5C962.7 112 981.3 101 990.7 95.5L1000 90L1000 201L990.7 201C981.3 201 962.7 201 944.2 201C925.7 201 907.3 201 888.8 201C870.3 201 851.7 201 833.2 201C814.7 201 796.3 201 777.8 201C759.3 201 740.7 201 722.2 201C703.7 201 685.3 201 666.8 201C648.3 201 629.7 201 611.2 201C592.7 201 574.3 201 555.8 201C537.3 201 518.7 201 500 201C481.3 201 462.7 201 444.2 201C425.7 201 407.3 201 388.8 201C370.3 201 351.7 201 333.2 201C314.7 201 296.3 201 277.8 201C259.3 201 240.7 201 222.2 201C203.7 201 185.3 201 166.8 201C148.3 201 129.7 201 111.2 201C92.7 201 74.3 201 55.8 201C37.3 201 18.7 201 9.3 201L0 201Z" fill="#eea9f5"></path><path d="M0 148L9.3 147.7C18.7 147.3 37.3 146.7 55.8 146.5C74.3 146.3 92.7 146.7 111.2 142.5C129.7 138.3 148.3 129.7 166.8 128.3C185.3 127 203.7 133 222.2 136C240.7 139 259.3 139 277.8 135.8C296.3 132.7 314.7 126.3 333.2 129.5C351.7 132.7 370.3 145.3 388.8 145.5C407.3 145.7 425.7 133.3 444.2 130.2C462.7 127 481.3 133 500 133.2C518.7 133.3 537.3 127.7 555.8 125.5C574.3 123.3 592.7 124.7 611.2 128.5C629.7 132.3 648.3 138.7 666.8 138.5C685.3 138.3 703.7 131.7 722.2 132.7C740.7 133.7 759.3 142.3 777.8 141.5C796.3 140.7 814.7 130.3 833.2 125.2C851.7 120 870.3 120 888.8 124.7C907.3 129.3 925.7 138.7 944.2 142.5C962.7 146.3 981.3 144.7 990.7 143.8L1000 143L1000 201L990.7 201C981.3 201 962.7 201 944.2 201C925.7 201 907.3 201 888.8 201C870.3 201 851.7 201 833.2 201C814.7 201 796.3 201 777.8 201C759.3 201 740.7 201 722.2 201C703.7 201 685.3 201 666.8 201C648.3 201 629.7 201 611.2 201C592.7 201 574.3 201 555.8 201C537.3 201 518.7 201 500 201C481.3 201 462.7 201 444.2 201C425.7 201 407.3 201 388.8 201C370.3 201 351.7 201 333.2 201C314.7 201 296.3 201 277.8 201C259.3 201 240.7 201 222.2 201C203.7 201 185.3 201 166.8 201C148.3 201 129.7 201 111.2 201C92.7 201 74.3 201 55.8 201C37.3 201 18.7 201 9.3 201L0 201Z" fill="#f8d4fa"></path><path d="M0 158L9.3 158.3C18.7 158.7 37.3 159.3 55.8 163.2C74.3 167 92.7 174 111.2 173C129.7 172 148.3 163 166.8 158.7C185.3 154.3 203.7 154.7 222.2 155.5C240.7 156.3 259.3 157.7 277.8 158.5C296.3 159.3 314.7 159.7 333.2 160.8C351.7 162 370.3 164 388.8 164.8C407.3 165.7 425.7 165.3 444.2 168C462.7 170.7 481.3 176.3 500 174.3C518.7 172.3 537.3 162.7 555.8 159.7C574.3 156.7 592.7 160.3 611.2 161.3C629.7 162.3 648.3 160.7 666.8 163.2C685.3 165.7 703.7 172.3 722.2 175.7C740.7 179 759.3 179 777.8 176.3C796.3 173.7 814.7 168.3 833.2 166.3C851.7 164.3 870.3 165.7 888.8 164.2C907.3 162.7 925.7 158.3 944.2 158.2C962.7 158 981.3 162 990.7 164L1000 166L1000 201L990.7 201C981.3 201 962.7 201 944.2 201C925.7 201 907.3 201 888.8 201C870.3 201 851.7 201 833.2 201C814.7 201 796.3 201 777.8 201C759.3 201 740.7 201 722.2 201C703.7 201 685.3 201 666.8 201C648.3 201 629.7 201 611.2 201C592.7 201 574.3 201 555.8 201C537.3 201 518.7 201 500 201C481.3 201 462.7 201 444.2 201C425.7 201 407.3 201 388.8 201C370.3 201 351.7 201 333.2 201C314.7 201 296.3 201 277.8 201C259.3 201 240.7 201 222.2 201C203.7 201 185.3 201 166.8 201C148.3 201 129.7 201 111.2 201C92.7 201 74.3 201 55.8 201C37.3 201 18.7 201 9.3 201L0 201Z" fill="#ffffff"></path></svg>